<?xml version="1.0" encoding="utf-8"?>
<!-- Generator: Adobe Illustrator 15.1.0, SVG Export Plug-In . SVG Version: 6.00 Build 0)  -->
<!DOCTYPE svg PUBLIC "-//W3C//DTD SVG 1.1//EN" "http://www.w3.org/Graphics/SVG/1.1/DTD/svg11.dtd">
<svg version="1.1" id="_x34_" xmlns="http://www.w3.org/2000/svg" xmlns:xlink="http://www.w3.org/1999/xlink" x="0px" y="0px"
	 width="595.279px" height="841.89px" viewBox="0 0 595.279 841.89" enable-background="new 0 0 595.279 841.89"
	 xml:space="preserve">
<path fill="#231815" d="M584.28,280.802c0-157.642-127.787-207.661-285.43-207.661c-157.638,0-285.428,50.019-285.428,207.661
	c0,147.069,111.245,257.967,254.172,272.176v180.146c0,17.254,13.994,31.252,31.256,31.252c17.266,0,31.26-13.998,31.26-31.252
	V552.978C473.037,538.765,584.28,427.873,584.28,280.802z"/>
<g>
	<path fill="#FF64E9" d="M162.526,414.736l-44.454,5.751l-0.697,0.136l-36.662,4.904c-2.307,0.225-4.507-1.788-5.088-4.782
		L50.367,252.564c-0.325-2.6,1.003-5.076,3.269-5.516l0.348-0.068l36.488-4.87c2.307-0.226,4.507,1.788,5.089,4.781l17.877,119.02
		l41.102-5.322c2.481-0.261,4.723,1.968,5.263,4.748l6.3,43.602c0.324,2.599-0.961,5.29-3.227,5.73L162.526,414.736z"/>
	<path fill="#FF64E9" d="M242.142,400.156c-39.731,7.719-81.563-21.435-91.908-74.681c-2.284-11.76-2.992-24.716-1.908-38.685
		c3.559-42.187,33.179-66.583,63.849-72.541c55.765-10.833,87.644,41.559,94.581,77.268
		C318.179,350.322,277.517,393.283,242.142,400.156z M262.8,299.835c-4.113-21.17-18.168-44.181-42.391-39.475
		c-25.268,4.908-28.829,33.117-25.049,52.576c5.275,27.157,25.577,42.297,43.526,38.81
		C259.624,347.718,267.494,323.999,262.8,299.835z"/>
	<path fill="#FF64E9" d="M381.62,369.287c-3.66,0.711-7.037-0.851-8.282-2.606l-87.599-137.207
		c-0.516-0.789-0.896-1.823-1.146-3.106c-0.416-2.139-0.135-4.413,1.574-5.854l28.649-22.875c0.963-0.631,1.793-1.015,2.664-1.184
		c2.788-0.542,5.428,0.943,6.241,2.339l56.237,94.924c0.813,1.395,1.286,1.969,1.809,1.867c0.697-0.136,1.054-1.093,1.552-3.186
		c2.644-13.384,11.504-98.099,12.58-106.52c0.373-2.734,1.477-4.502,3.567-4.908c0.871-0.17,1.784-0.125,2.913,0.1l31.171,5.928
		c3.386,0.673,5.237,2.755,5.86,5.963c1.038,5.345-3.904,127.91-26.924,167.665c-0.663,1.24-2.986,3.244-5.6,3.752L381.62,369.287z"
		/>
	<path fill="#FF64E9" d="M517.424,343.348c-0.174,0.033-0.481,0.315-0.655,0.349l-33.566,8.74l-0.349,0.068
		c-2.09,0.406-4.29-1.608-4.963-4.14L438.343,182.96l-0.083-0.428c-0.499-2.566,0.961-5.291,3.052-5.697l31.302-8.299l0.696-0.136
		l45.772-11.998l0.349-0.068c2.091-0.406,4.465,1.573,5.138,4.105l8.622,36.937l0.083,0.428c0.499,2.566-0.961,5.291-3.011,5.911
		l-40.104,10.454l4.443,18.221l31.193-6.06c2.092-0.406,4.598,1.325,5.138,4.104l0.083,0.428l6.008,32.785
		c0.407,3.028-0.879,5.719-3.318,6.192l-28.928,5.62l4.735,19.717l41.806-11.007l0.349-0.067c2.265-0.44,4.639,1.54,5.138,4.106
		l8.448,36.97c0.54,2.78-0.704,5.685-3.103,6.372L517.424,343.348z"/>
</g>
<g>
	<g>
		<path fill="#FF64E9" d="M361.016,517.132c1.822,1.117,28.518-5.569,50.676-15.745c21.798-10.012,33.905-20.987,41.598-36.523
			c7.347-14.842,12.949-38.429-9.134-53.71c-22.081-15.28-43.833-0.11-43.833-0.11s-6.614-25.68-33.316-28.476
			c-26.71-2.798-37.829,18.747-41.93,34.792c-4.288,16.795-2.258,33.009,7.757,54.809
			C343.012,494.326,358.907,516.794,361.016,517.132z"/>
	</g>
</g>
<g>
	<g>
		<path fill="#FF64E9" d="M148.064,228.62c1.586-0.329,12.867-17.877,19.83-34.998c6.85-16.845,7.845-29.191,4.032-41.768
			c-3.644-12.015-12.787-27.955-32.92-24.939c-20.13,3.016-24.278,22.687-24.278,22.687s-16.98-10.757-33.188,1.554
			c-16.21,12.315-11.173,29.991-5.113,40.983c6.347,11.507,15.884,19.412,32.73,26.26
			C126.282,225.36,146.723,229.527,148.064,228.62z"/>
	</g>
</g>
<g>
	<g>
		<path fill="#FF64E9" d="M305.268,499.71c1.027-0.729,3.593-16.755,3.213-31.129c-0.374-14.142-3.518-23.251-10.159-31.024
			c-6.345-7.425-17.834-15.933-31.241-7.502c-13.406,8.43-10.224,23.743-10.224,23.743s-15.458-2.369-23.167,11.462
			c-7.71,13.834,1.394,24.859,9.143,30.803c8.113,6.221,17.377,8.879,31.519,8.503C288.728,504.183,304.595,500.776,305.268,499.71z
			"/>
	</g>
</g>
</svg>
